<svg xmlns="http://www.w3.org/2000/svg" viewBox="0 0 24 24" fill="#ffffff"><path d="M19.14 12.94a7.5 7.5 0 0 0 .05-1.88l2.03-1.58a.5.5 0 0 0 .12-.64l-1.92-3.32a.5.5 0 0 0-.6-.22l-2.39.96a7.3 7.3 0 0 0-1.62-.94l-.36-2.54a.5.5 0 0 0-.5-.42h-3.84a.5.5 0 0 0-.5.42l-.36 2.54c-.58.24-1.12.55-1.62.94l-2.39-.96a.5.5 0 0 0-.6.22L2.66 8.84a.5.5 0 0 0 .12.64l2.03 1.58a7.5 7.5 0 0 0 0 1.88l-2.03 1.58a.5.5 0 0 0-.12.64l1.92 3.32c.13.22.39.31.6.22l2.39-.96c.5.39 1.04.7 1.62.94l.36 2.54c.04.24.25.42.5.42h3.84c.25 0 .46-.18.5-.42l.36-2.54c.58-.24 1.12-.56 1.62-.94l2.39.96c.22.09.47 0 .6-.22l1.92-3.32a.5.5 0 0 0-.12-.64l-2.03-1.58zM12 15.5A3.5 3.5 0 1 1 12 8.5a3.5 3.5 0 0 1 0 7z"/></svg>
